<svg width="1285" height="563" viewBox="0 0 1285 563" fill="none" xmlns="http://www.w3.org/2000/svg">
<path d="M167.242 136.112C191.72 69.9626 285.28 69.9626 309.758 136.112L329.11 188.409C336.907 209.48 353.52 226.093 374.591 233.89L426.888 253.242C493.037 277.72 493.037 371.28 426.888 395.758L374.591 415.11C353.52 422.907 336.907 439.52 329.11 460.591L309.758 512.888C285.28 579.037 191.72 579.037 167.242 512.888L147.89 460.591C140.093 439.52 123.48 422.907 102.409 415.11L50.1122 395.758C-16.0374 371.28 -16.0374 277.72 50.1123 253.242L102.409 233.89C123.48 226.093 140.093 209.48 147.89 188.409L167.242 136.112Z" stroke="url(#paint0_linear_3956_69294)"/>
<path d="M1116.37 27.3938C1129.64 -8.4646 1180.36 -8.46459 1193.63 27.3938L1204.18 55.8995C1208.45 67.447 1217.55 76.5514 1229.1 80.8244L1257.61 91.3725C1293.46 104.641 1293.46 155.359 1257.61 168.628L1229.1 179.176C1217.55 183.449 1208.45 192.553 1204.18 204.1L1193.63 232.606C1180.36 268.465 1129.64 268.465 1116.37 232.606L1105.82 204.1C1101.55 192.553 1092.45 183.449 1080.9 179.176L1052.39 168.628C1016.54 155.359 1016.54 104.641 1052.39 91.3725L1080.9 80.8244C1092.45 76.5514 1101.55 67.447 1105.82 55.8995L1116.37 27.3938Z" stroke="url(#paint1_linear_3956_69294)"/>
<defs>
<linearGradient id="paint0_linear_3956_69294" x1="3.55393e-06" y1="324.5" x2="477" y2="324.5" gradientUnits="userSpaceOnUse">
<stop stop-color="#3288FF"/>
<stop offset="0.338542" stop-color="#3DCEEE"/>
<stop offset="0.604167" stop-color="#5837DB"/>
<stop offset="0.921875" stop-color="#3288FF"/>
</linearGradient>
<linearGradient id="paint1_linear_3956_69294" x1="1025" y1="130" x2="1285" y2="130" gradientUnits="userSpaceOnUse">
<stop stop-color="#3288FF"/>
<stop offset="0.338542" stop-color="#3DCEEE"/>
<stop offset="0.604167" stop-color="#5837DB"/>
<stop offset="0.921875" stop-color="#3288FF"/>
</linearGradient>
</defs>
</svg>
