<svg width="200" viewBox="0 0 634 133" fill="none" xmlns="http://www.w3.org/2000/svg">
<path d="M240.125 32.29C247.895 32.29 254.685 33.83 260.495 36.91C266.305 39.99 270.785 44.33 273.935 49.93C277.155 55.46 278.765 61.865 278.765 69.145C278.765 76.355 277.155 82.76 273.935 88.36C270.785 93.96 266.27 98.3 260.39 101.38C254.58 104.46 247.825 106 240.125 106H212.51V32.29H240.125ZM238.97 90.46C245.76 90.46 251.045 88.605 254.825 84.895C258.605 81.185 260.495 75.935 260.495 69.145C260.495 62.355 258.605 57.07 254.825 53.29C251.045 49.51 245.76 47.62 238.97 47.62H230.465V90.46H238.97ZM285.229 76.6C285.229 70.58 286.349 65.295 288.589 60.745C290.899 56.195 294.014 52.695 297.934 50.245C301.854 47.795 306.229 46.57 311.059 46.57C315.189 46.57 318.794 47.41 321.874 49.09C325.024 50.77 327.439 52.975 329.119 55.705V47.41H347.074V106H329.119V97.705C327.369 100.435 324.919 102.64 321.769 104.32C318.689 106 315.084 106.84 310.954 106.84C306.194 106.84 301.854 105.615 297.934 103.165C294.014 100.645 290.899 97.11 288.589 92.56C286.349 87.94 285.229 82.62 285.229 76.6ZM329.119 76.705C329.119 72.225 327.859 68.69 325.339 66.1C322.889 63.51 319.879 62.215 316.309 62.215C312.739 62.215 309.694 63.51 307.174 66.1C304.724 68.62 303.499 72.12 303.499 76.6C303.499 81.08 304.724 84.65 307.174 87.31C309.694 89.9 312.739 91.195 316.309 91.195C319.879 91.195 322.889 89.9 325.339 87.31C327.859 84.72 329.119 81.185 329.119 76.705ZM392.719 90.775V106H383.584C377.074 106 371.999 104.425 368.359 101.275C364.719 98.055 362.899 92.84 362.899 85.63V62.32H355.759V47.41H362.899V33.13H380.854V47.41H392.614V62.32H380.854V85.84C380.854 87.59 381.274 88.85 382.114 89.62C382.954 90.39 384.354 90.775 386.314 90.775H392.719ZM399.15 76.6C399.15 70.58 400.27 65.295 402.51 60.745C404.82 56.195 407.935 52.695 411.855 50.245C415.775 47.795 420.15 46.57 424.98 46.57C429.11 46.57 432.715 47.41 435.795 49.09C438.945 50.77 441.36 52.975 443.04 55.705V47.41H460.995V106H443.04V97.705C441.29 100.435 438.84 102.64 435.69 104.32C432.61 106 429.005 106.84 424.875 106.84C420.115 106.84 415.775 105.615 411.855 103.165C407.935 100.645 404.82 97.11 402.51 92.56C400.27 87.94 399.15 82.62 399.15 76.6ZM443.04 76.705C443.04 72.225 441.78 68.69 439.26 66.1C436.81 63.51 433.8 62.215 430.23 62.215C426.66 62.215 423.615 63.51 421.095 66.1C418.645 68.62 417.42 72.12 417.42 76.6C417.42 81.08 418.645 84.65 421.095 87.31C423.615 89.9 426.66 91.195 430.23 91.195C433.8 91.195 436.81 89.9 439.26 87.31C441.78 84.72 443.04 81.185 443.04 76.705ZM497.82 106.84C492.71 106.84 488.16 105.965 484.17 104.215C480.18 102.465 477.03 100.085 474.72 97.075C472.41 93.995 471.115 90.565 470.835 86.785H488.58C488.79 88.815 489.735 90.46 491.415 91.72C493.095 92.98 495.16 93.61 497.61 93.61C499.85 93.61 501.565 93.19 502.755 92.35C504.015 91.44 504.645 90.285 504.645 88.885C504.645 87.205 503.77 85.98 502.02 85.21C500.27 84.37 497.435 83.46 493.515 82.48C489.315 81.5 485.815 80.485 483.015 79.435C480.215 78.315 477.8 76.6 475.77 74.29C473.74 71.91 472.725 68.725 472.725 64.735C472.725 61.375 473.635 58.33 475.455 55.6C477.345 52.8 480.075 50.595 483.645 48.985C487.285 47.375 491.59 46.57 496.56 46.57C503.91 46.57 509.685 48.39 513.885 52.03C518.155 55.67 520.605 60.5 521.235 66.52H504.645C504.365 64.49 503.455 62.88 501.915 61.69C500.445 60.5 498.485 59.905 496.035 59.905C493.935 59.905 492.325 60.325 491.205 61.165C490.085 61.935 489.525 63.02 489.525 64.42C489.525 66.1 490.4 67.36 492.15 68.2C493.97 69.04 496.77 69.88 500.55 70.72C504.89 71.84 508.425 72.96 511.155 74.08C513.885 75.13 516.265 76.88 518.295 79.33C520.395 81.71 521.48 84.93 521.55 88.99C521.55 92.42 520.57 95.5 518.61 98.23C516.72 100.89 513.955 102.99 510.315 104.53C506.745 106.07 502.58 106.84 497.82 106.84ZM587.764 75.76C587.764 77.44 587.659 79.19 587.449 81.01H546.814C547.094 84.65 548.249 87.45 550.279 89.41C552.379 91.3 554.934 92.245 557.944 92.245C562.424 92.245 565.539 90.355 567.289 86.575H586.399C585.419 90.425 583.634 93.89 581.044 96.97C578.524 100.05 575.339 102.465 571.489 104.215C567.639 105.965 563.334 106.84 558.574 106.84C552.834 106.84 547.724 105.615 543.244 103.165C538.764 100.715 535.264 97.215 532.744 92.665C530.224 88.115 528.964 82.795 528.964 76.705C528.964 70.615 530.189 65.295 532.639 60.745C535.159 56.195 538.659 52.695 543.139 50.245C547.619 47.795 552.764 46.57 558.574 46.57C564.244 46.57 569.284 47.76 573.694 50.14C578.104 52.52 581.534 55.915 583.984 60.325C586.504 64.735 587.764 69.88 587.764 75.76ZM569.389 71.035C569.389 67.955 568.339 65.505 566.239 63.685C564.139 61.865 561.514 60.955 558.364 60.955C555.354 60.955 552.799 61.83 550.699 63.58C548.669 65.33 547.409 67.815 546.919 71.035H569.389ZM629.892 90.775V106H620.757C614.247 106 609.172 104.425 605.532 101.275C601.892 98.055 600.072 92.84 600.072 85.63V62.32H592.932V47.41H600.072V33.13H618.027V47.41H629.787V62.32H618.027V85.84C618.027 87.59 618.447 88.85 619.287 89.62C620.127 90.39 621.527 90.775 623.487 90.775H629.892Z" fill="white"/>
<path d="M46.4604 13.9825C53.3243 -4.56708 79.5605 -4.56707 86.4244 13.9825L91.8155 28.5516C93.9735 34.3835 98.5716 38.9816 104.404 41.1396L118.973 46.5307C137.522 53.3946 137.522 79.6308 118.973 86.4947L104.404 91.8858C98.5716 94.0438 93.9735 98.6419 91.8155 104.474L86.4244 119.043C79.5605 137.592 53.3243 137.592 46.4604 119.043L41.0693 104.474C38.9113 98.6419 34.3132 94.0438 28.4813 91.8858L13.9122 86.4947C-4.63739 79.6308 -4.63738 53.3946 13.9122 46.5307L28.4813 41.1396C34.3132 38.9816 38.9113 34.3835 41.0693 28.5516L46.4604 13.9825Z" fill="white"/>
</svg>
